<svg xmlns="http://www.w3.org/2000/svg" width="1080" height="1920" viewBox="0 0 1080 1920">
<rect width="1080" height="1920" fill="#f4f7fb"/><rect x="40" y="30" width="1000" height="1860" rx="52" fill="#fff" stroke="#d7e0ea" stroke-width="6"/>
<text x="90" y="120" font-family="Arial" font-size="30" font-weight="700" fill="#102a43">Commerce • Billing • Pharmacy</text><text x="90" y="160" font-family="Arial" font-size="20" fill="#61758a">Operational workflows connected to the clinical record</text>
<rect x="80" y="220" width="920" height="260" rx="28" fill="#fff" stroke="#d7e0ea" stroke-width="4"/><text x="115" y="280" font-family="Arial" font-size="23" fill="#61758a">INVOICE</text><text x="115" y="345" font-family="Arial" font-size="44" font-weight="700" fill="#102a43">₹ 3,850.00</text><text x="115" y="395" font-family="Arial" font-size="20" fill="#61758a">Consultation • Procedure • Medicines</text><rect x="740" y="300" width="180" height="70" rx="18" fill="#eaf3ff"/><text x="790" y="345" font-family="Arial" font-size="21" font-weight="700" fill="#355c7d">UPI / PAY</text>
<text x="85" y="565" font-family="Arial" font-size="26" font-weight="700" fill="#102a43">Pharmacy inventory</text>
<rect x="80" y="615" width="920" height="165" rx="22" fill="#fff" stroke="#d7e0ea" stroke-width="4"/><text x="120" y="675" font-family="Arial" font-size="27" font-weight="700" fill="#102a43">Stock levels</text><text x="120" y="723" font-family="Arial" font-size="18" fill="#61758a">Tenant-scoped stock with transactional updates</text><rect x="80" y="820" width="920" height="165" rx="22" fill="#fff" stroke="#d7e0ea" stroke-width="4"/><text x="120" y="880" font-family="Arial" font-size="27" font-weight="700" fill="#102a43">Prescription</text><text x="120" y="928" font-family="Arial" font-size="18" fill="#61758a">Clinical prescription linked to encounter</text><rect x="80" y="1025" width="920" height="165" rx="22" fill="#fff" stroke="#d7e0ea" stroke-width="4"/><text x="120" y="1085" font-family="Arial" font-size="27" font-weight="700" fill="#102a43">Dispense ledger</text><text x="120" y="1133" font-family="Arial" font-size="18" fill="#61758a">Durable allocation/completion ledger</text><rect x="80" y="1230" width="920" height="165" rx="22" fill="#fff" stroke="#d7e0ea" stroke-width="4"/><text x="120" y="1290" font-family="Arial" font-size="27" font-weight="700" fill="#102a43">Replay protection</text><text x="120" y="1338" font-family="Arial" font-size="18" fill="#61758a">Concurrent ownership + idempotent retry audit</text>
<text x="90" y="1800" font-family="Arial" font-size="17" fill="#7a8c9e">UI preview generated from the current repository screen architecture; not a device capture.</text>
</svg>